<?xml version="1.0" standalone="no"?>
<!DOCTYPE svg PUBLIC "-//W3C//DTD SVG 20010904//EN"
 "http://www.w3.org/TR/2001/REC-SVG-20010904/DTD/svg10.dtd">
<svg version="1.0" xmlns="http://www.w3.org/2000/svg"
 width="250.000000pt" height="250.000000pt" viewBox="0 0 250.000000 250.000000"
 preserveAspectRatio="xMidYMid meet">

<g transform="translate(0.000000,250.000000) scale(0.100000,-0.100000)"
fill="#000000" stroke="none">
<path d="M1170 2234 c-14 -3 -42 -9 -62 -15 -36 -9 -38 -12 -38 -52 0 -53 -21
-132 -51 -191 -30 -62 -126 -151 -191 -180 l-52 -23 31 -32 c42 -42 77 -41
229 9 68 22 131 40 142 40 24 0 60 -34 68 -65 9 -35 -10 -60 -141 -189 -148
-146 -170 -189 -170 -331 0 -93 2 -105 32 -166 33 -66 93 -130 245 -261 84
-73 121 -143 121 -228 0 -122 -86 -215 -198 -214 -53 1 -116 23 -67 24 32 0
79 26 93 52 14 26 14 90 -1 117 -14 27 -61 51 -100 51 -46 0 -100 -54 -107
-107 -8 -58 2 -87 45 -135 50 -55 85 -68 185 -68 208 0 356 118 397 315 22
106 -5 243 -64 320 -31 40 -32 45 -8 45 54 0 158 86 197 164 32 63 32 86 3 86
-13 1 -85 1 -160 1 -76 0 -138 4 -138 8 0 5 30 17 66 27 l65 19 -3 385 c-3
366 -4 387 -24 430 -41 89 -116 142 -225 160 -65 10 -74 10 -119 4z m-36 -307
c11 -18 0 -47 -21 -54 -12 -4 -43 23 -43 37 0 14 31 41 43 37 6 -2 15 -11 21
-20z"/>
</g>
</svg>
